<?xml version="1.0" encoding="utf-8"?>
<!-- Generator: Adobe Illustrator 23.0.5, SVG Export Plug-In . SVG Version: 6.00 Build 0)  -->
<svg version="1.1" id="Warstwa_1" xmlns="http://www.w3.org/2000/svg" xmlns:xlink="http://www.w3.org/1999/xlink" x="0px" y="0px"
	 viewBox="0 0 100 100" style="enable-background:new 0 0 100 100;" xml:space="preserve">
<style type="text/css">
	.st0{fill:#FFFFFF;}
	.st1{fill:#FF2500;}
</style>
<title>Spinthewheel_arrow</title>
<g>
	<g id="_ÎÓÈ_1">
		<path class="st0" d="M36.4,58.9l4.2,8.8L47.5,82c1.2,2.4,4.1,3.4,6.5,2.3c1-0.5,1.7-1.2,2.2-2.2l7.1-13.9l4.4-8.7l1.7-3.5l4.4-8.6
			l6.1-11.9c1.2-2.4,0.2-5.3-2-6.5c-0.7-0.4-1.5-0.5-2.3-0.5l-46.1,0.2c-2.7,0-4.8,2.2-4.8,4.8c0,0.8,0.2,1.5,0.5,2.2l5.4,11.2
			l4.2,8.7L36.4,58.9z"/>
		<path class="st1" d="M36.5,40.1l4.2,8.8l6.9,14.3c1.2,2.4,4.1,3.4,6.5,2.3c1-0.5,1.7-1.2,2.2-2.2l7.1-13.9l4.4-8.7l1.7-3.5
			l4.4-8.6l6.1-11.9c1.3-2.4,0.3-5.3-2-6.5c-0.7-0.4-1.5-0.5-2.3-0.5L29.6,9.8c-2.7,0-4.8,2.2-4.8,4.8c0,0.8,0.2,1.5,0.5,2.2
			l5.4,11.1l4.2,8.7L36.5,40.1z"/>
	</g>
</g>
</svg>
